<?xml version="1.0" standalone="no"?>
<!DOCTYPE svg PUBLIC "-//W3C//DTD SVG 20010904//EN"
 "http://www.w3.org/TR/2001/REC-SVG-20010904/DTD/svg10.dtd">
<svg version="1.0" xmlns="http://www.w3.org/2000/svg"
 width="304.000000pt" height="304.000000pt" viewBox="0 0 304.000000 304.000000"
 preserveAspectRatio="xMidYMid meet">

<g transform="translate(0.000000,304.000000) scale(0.100000,-0.100000)"
fill="#000000" stroke="none">
<path d="M1448 2270 c-194 -35 -348 -118 -480 -258 -84 -89 -142 -186 -181
-304 -39 -121 -49 -303 -22 -424 33 -150 102 -279 209 -392 111 -116 216 -181
373 -228 122 -37 308 -39 428 -6 89 26 224 88 270 126 l30 24 -73 -24 c-203
-68 -417 -45 -603 66 -86 51 -204 177 -251 266 -64 123 -83 202 -82 344 1 108
5 136 28 205 42 123 90 201 180 291 121 121 242 180 418 204 95 13 212 1 304
-30 31 -11 59 -18 61 -16 6 6 -87 63 -151 92 -32 15 -91 35 -130 45 -81 22
-259 32 -328 19z"/>
<path d="M1621 2054 c-61 -16 -163 -64 -201 -93 -23 -19 -22 -19 35 1 33 11
96 22 140 25 156 10 294 -43 408 -158 l69 -69 119 0 c65 0 119 4 119 8 0 15
-106 138 -146 169 -65 51 -152 95 -226 114 -87 23 -238 24 -317 3z"/>
<path d="M2000 1081 c-152 -154 -360 -199 -575 -125 -53 18 69 -54 135 -79 62
-24 95 -30 185 -35 130 -5 200 9 315 66 79 38 196 145 233 210 l19 33 -124 -2
-123 -2 -65 -66z"/>
</g>
</svg>
