<svg xmlns="http://www.w3.org/2000/svg" width="165.774" height="210">
    <g fill="#363A5D">
        <path
            d="M3.008 198.906c-1.364 1.011-2.6 2.226-2.5 4.164.2 4.121 7.279 5.11 10.173 5.5 5.126.7 10.261.592 15.412.787q28.062 1.062 56.151.4 14.416-.321 28.821-1.047c8.435-.422 17.83.119 25.821-3.139a111.92 111.92 0 0013.9-7c3.722-2.162 8.55-4.225 10.756-8.269 3.867-7.088-9.686-8.488-13.415-9.267-14.663-3.064-29.785-3.609-44.7-4.064a335.882 335.882 0 00-45.512 1.419c-18.949 2-39.209 8.412-54.686 20.355z" />
        <path d="M42.093 117.281h108.57v74.422H42.093z" />
    </g>
    <path d="M150.664 117.281H42.094l14.37-16.611a3.51 3.51 0 012.656-1.214h104.971a.91.91 0 01.689 1.507z"
        fill="#5A5D79" />
    <path
        d="M150.718 116.804H43.802a5.25 5.25 0 00-1.464 0 .67.67 0 01-.19 0l.482.671 10.593-12.245 3.774-4.363c.969-1.008 2.018-.936 3.235-.936h100.523a20.56 20.56 0 012.9 0c1.323.2.1 1.4-.409 1.99l-12.12 14.01-1 1.154c-.53.612.687.837 1.074.39l10.907-12.608 2.515-2.908c.418-.483 1.057-1.033 1.02-1.726-.069-1.33-1.418-1.255-2.375-1.255H61.611c-.775 0-1.556-.027-2.331 0-1.957.068-3.073 1.172-4.249 2.531l-12.394 14.328-1.081 1.249c-.338.391.118.671.482.671h108.381c.062-.005.127 0 .19 0 .738 0 .977-.953.109-.953z"
        fill="#262626" />
    <path d="M42.254 117.281l-26.671 10.383v74.422l26.671-10z" fill="#7D7F96" />
    <path
        d="M42.027 117.111l-23.343 9.087-3.328 1.3c-.843.328-.054.537.455.339l23.343-9.087 3.328-1.3c.843-.328.054-.537-.455-.339zm.867 74.801v-71.263c0-.347-1.279-.122-1.279.343v71.267c0 .347 1.279.122 1.279-.343z"
        fill="#262626" />
    <path
        d="M42.255 117.281l-26.671 10.383-12.783-12.448a2.335 2.335 0 01.809-3.857l21.861-8.2a2.335 2.335 0 012.425.492z"
        fill="#5A5D79" />
    <path
        d="M41.565 117.549l-25.982 10.114-10.86-10.775a2.335 2.335 0 01.809-3.857l7.56-2.806c3.7-1.372 8.164-4.186 12.241-3.315 2.923.626 15.923 10.36 16.232 10.639z"
        fill="transparent" />
    <path
        d="M41.984 116.951l-23.343 9.087-3.328 1.3.859.061-9.8-9.541-2.283-2.223a3.945 3.945 0 01-1.288-1.683c-.587-2.18 2.286-2.714 3.741-3.259l15.546-5.828c1.193-.447 3.433-1.818 4.737-1.229a5.41 5.41 0 011.356 1.125l2.241 2.126 11.243 10.667c.378.359 1.588-.148 1.178-.537l-10.581-10.045-3.777-3.583c-1.631-1.374-3.324-.543-5.023.094l-16.381 6.141c-1.44.424-2.842.967-4.192 1.623a2.713 2.713 0 00-.792 4.111c.369.403.758.787 1.166 1.151l11.731 11.423a.8.8 0 00.859.061l23.343-9.087 3.328-1.3c.823-.317.089-.9-.54-.655z"
        fill="#262626" />
    <path fill="#5A5D79" d="M15.085 127.664h108.907v74.422H15.085z" />
    <path
        d="M123.992 129.206c-3.493 5.207-7.518 12.212-10.019 16.684a8.58 8.58 0 01-7.473 4.394l-91.415.2v51.6h108.907z"
        fill="transparent" />
    <path d="M150.664 117.281l-26.671 10.383v74.422l26.671-10z" fill="#363A5D" />
    <path d="M150.663 141.953l-8.857 3.555a7.256 7.256 0 01-8.5-2.373l-9.312-12.387v71.338l26.671-10z" fill="#5A5D79" />
    <path
        d="M123.353 131.016v68.465c0 .274 1.279.073 1.279-.343v-68.465c0-.274-1.279-.073-1.279.343zm-108.529-3.039H123.704c.983-.21 1.934-.546 2.831-1l7.748-3.016 15.616-6.079 1-.391c.838-.326.062-.622-.475-.413l-11.988 4.667c-4.76 1.853-9.667 3.505-14.335 5.58-.633.281.058.015.083.03-.111-.065-.458 0-.584 0H35.8c-6.708 0-13.449-.2-20.155 0h-.3c-.417 0-1.378.625-.524.625zm135.191 12.482v51.677l.364-.428-12.1 4.537c-4.744 1.779-9.612 3.373-14.277 5.352-.551.234.137.041-.037.018a4.96 4.96 0 00-.614 0H17.758a13.14 13.14 0 00-2.313 0 1.7 1.7 0 01-.3 0l.592.423v-54.376c0-.671-1.3-.483-1.3.1v54.376c0 .332.309.423.592.423h103.525a40.68 40.68 0 005.341 0 13.25 13.25 0 002.64-.938l7.655-2.87 15.744-5.9 1.015-.38c.153-.057.364-.248.364-.428v-51.681c0-.671-1.3-.483-1.3.1z"
        fill="#262626" />
    <path d="M123.993 127.667H15.086l-14.359 16.6a.74.74 0 00.561 1.227h106.946a.74.74 0 00.561-.257z" fill="#5A5D79" />
    <path
        d="M123.993 127.667H16.16l-5.006 9.611c-1.077 1.94-1.284 5.105 1.864 5.105h92.476c1.76 0 3.454-.668 4.741-1.869z"
        fill="#7D7F96" />
    <path
        d="M124.228 127.251H16.02a2.16 2.16 0 00-1.476.287 9.404 9.404 0 00-1.062 1.228l-2.241 2.592L.574 143.691c-.759.878-.95 2.1.592 2.217.59.043 1.2 0 1.792 0h104.997c1.256-.079 1.829-1.063 2.586-1.938l11.2-12.95 2.775-3.208c.512-.592-.718-.676-1.048-.294l-10.63 12.291-4.476 5.175c-.2.221.307.036-.113.1a6.843 6.843 0 01-.928 0H4.949c-.991.069-1.986.069-2.977 0-.109-.016-.351.057-.447 0-.827-.484.428-1.478.71-1.8l12.294-14.215 1.08-1.248-.759.267h95.461c4.4 0 8.869.243 13.261 0h.19c.543-.009 1.328-.837.466-.837z"
        fill="#262626" />
    <path
        d="M150.664 117.281l-26.671 10.382 14.89 14.389c.324.313.799.411 1.221.253l24.275-9.1a1.168 1.168 0 00.412-1.922z"
        fill="#5A5D79" />
    <path
        d="M149.796 117.619l-25.48 10.174 13.4 13.532c.285.294.719.388 1.1.239l10.05-3.939 6.081-2.384c1.986-.779 4.765-1.719 4.523-4.4a5.45 5.45 0 00-1.742-3.06c-.912-.967-7.487-9.7-7.932-10.162z"
        fill="#5A5D79" />
    <path
        d="M150.375 116.881l-23.343 9.087-3.328 1.3a.465.465 0 00-.328.332.46.46 0 00.128.449l11 10.631a47.36 47.36 0 003.887 3.756c1.3.992 3.307-.216 4.622-.708l17.435-6.536a43.6 43.6 0 004.219-1.582c2.541-1.272.065-3.245-1.062-4.363l-12.358-12.25c-.429-.425-1.635.112-1.167.576l10.24 10.15 2.716 2.692a7.64 7.64 0 011.158 1.146c.931 1.506-2.4 2.107-3.312 2.449l-16.751 6.28-2.972 1.114a4.62 4.62 0 01-1.323.5c-.43-.023-.932-.679-1.211-.948l-2.327-2.249-11.817-11.424-.2.781 23.343-9.087 3.328-1.3c.814-.316.1-1.059-.577-.796zm-34.737 30.351v12.644c0 .691 1.3.519 1.3-.086v-12.644c0-.691-1.3-.519-1.3.086zm.01 15.35v1.99c0 .536 1.279.268 1.279-.157v-1.994c0-.536-1.279-.268-1.279.158zm-.007 4.292v5.194c0 .649 1.293.445 1.293-.107v-5.194c0-.65-1.293-.445-1.293.107z"
        fill="#262626" />
    <path
        d="M129.803 186.133l11.546-3.729c.768-.248.553-1.109-.23-.856l-11.545 3.724c-.768.248-.554 1.109.229.857zm-.024-4.577l11.491-3.763c.748-.245.587-.929-.181-.677l-11.491 3.763c-.748.245-.587.928.181.677zm-.011-4.44l11.439-3.8c.738-.245.6-.847-.159-.595l-11.439 3.8c-.738.245-.6.847.159.595zm.046 12.482l2.549-.814c.264-.084.6-.319.513-.643-.082-.307-.5-.384-.766-.3l-2.549.814c-.264.084-.6.318-.513.643.082.307.5.384.766.3zm4.427-1.614l2.572-.822c.166-.053.631-.2.562-.459s-.566-.164-.716-.116l-2.572.822c-.166.053-.631.2-.562.458s.565.164.716.116zm4.533-1.379l2.6-.829c.2-.064.622-.238.545-.522s-.542-.24-.733-.179l-2.6.829c-.2.064-.622.237-.546.522s.542.24.733.179z"
        fill="#A1A2B3" />
    <g fill="#ececec">
        <path
            d="M55.36 183.283c3.4-3.962 9.025-6.259 14.143-6.473a21.9 21.9 0 0111.224 2.587 20.09 20.09 0 013.959 2.77c.424.424 1.631-.11 1.168-.574a21.217 21.217 0 00-10.312-5.248 22.77 22.77 0 00-17.94 3.645 17.96 17.96 0 00-3.32 2.888c-.53.617.682.866 1.078.406zm4.381-16.202a2.06 2.06 0 01-1.316 2.468 1.815 1.815 0 01-2.212-1.468 2.06 2.06 0 011.316-2.468 1.815 1.815 0 012.212 1.468z" />
        <ellipse cx="83.166" cy="168.267" rx="1.82" ry="2.03" />
        <path
            d="M94.788 120.436c-5.86.7-12.167 1.474-17.747-.961-4.633-2.022-8.487-6.275-8.189-11.59.31-5.524 4.333-9.845 9.207-12a28.74 28.74 0 0117.279-1.465c2.725.562 6.011 1.367 8.285 3.062 1.9 1.418 2.654 3.946.812 5.721a11.747 11.747 0 01-5.116 2.376c-1.843.506-3.714.978-5.6 1.305-9.6 1.67-20.5.084-28.034-6.516a18.003 18.003 0 01-6.353-13.146c-.016-5.151 2.893-9.842 6.8-13.02 7.82-6.36 18.694-8.171 28.491-8.216a89.64 89.64 0 0114.462 1.162 27.45 27.45 0 017.56 1.913c2.377 1.132 4.79 3.5 4.158 6.381-.6 2.726-3.741 3.59-6.075 4.269a39.214 39.214 0 01-9.259 1.421 107.007 107.007 0 01-17.71-.908 95.41 95.41 0 01-16.361-3.342 35.593 35.593 0 01-10.946-5.19 17.79 17.79 0 01-6.668-9.424 21.32 21.32 0 01.751-13.233c3.206-8.233 11.283-13.314 19.259-16.189a86.12 86.12 0 0134.222-4.559 89.87 89.87 0 0117.409 2.853 73 73 0 018.569 2.8c2.328.935 4.7 2 5.884 4.359 2.287 4.544-2.242 8.849-5.858 10.891-3.967 2.24-8.6 3.562-12.987 4.726a87.809 87.809 0 01-17.929 2.465c-5.751.3-11.523.509-17.283.416-11.092-.178-22.469-1.582-32.505-6.6-8.716-4.359-17.3-13.241-15.12-23.859 1.029-5.011 4.77-9.351 8.62-12.512a45.25 45.25 0 0113.506-7.351c9.987-3.6 20.739-4.848 31.281-5.467a152.344 152.344 0 0135.154 1.891 154.5 154.5 0 0117.344 4.078c.361.107 1.511-.443 1.026-.587a155.363 155.363 0 00-74.184-3.462c-10.464 2.169-21.41 6.039-28.759 14.171-3.605 3.99-6.054 8.866-5.471 14.351a22.213 22.213 0 007.2 13.676c8.571 7.983 21.149 10.9 32.478 11.9 6.088.48 12.198.596 18.3.349a159.294 159.294 0 0019.469-1.427 81.23 81.23 0 0015.82-4.243c4.12-1.536 8.489-3.737 10.76-7.694a6.225 6.225 0 00.246-6.357c-1.259-2.226-3.472-3.28-5.743-4.2a82.593 82.593 0 00-18.1-4.888 91.6 91.6 0 00-37.706 1.937c-8.958 2.375-18.451 6.389-23.857 14.328-5.058 7.43-5.356 18.259 1.033 25.011a28.55 28.55 0 0011.088 6.738 82.558 82.558 0 0015.728 3.809 118.76 118.76 0 0019.576 1.475 48.3 48.3 0 009.036-.876 23.42 23.42 0 007.708-2.64 4.725 4.725 0 002.3-5.178c-.61-2.492-2.9-4.125-5.163-5.029a34.96 34.96 0 00-7.783-1.755q-3.861-.583-7.76-.855c-10.361-.718-21.317.217-30.7 4.994-4.564 2.324-8.738 5.623-11.022 10.311a15.92 15.92 0 00.8 15.054c5.329 9.2 17.078 12.6 27.1 12.264 3.573-.118 23.493-2.145 18.638-9.734-1.466-2.291-4.691-3.195-7.147-3.919a34.47 34.47 0 00-8.424-1.406c-5.48-.209-11.33.9-15.989 3.909-4.272 2.758-7.471 7.492-6.991 12.751.477 5.22 4.824 9.056 9.517 10.744 5.592 2.011 11.717 1.275 17.479.583.595-.071 1.083-.754.191-.647z" />
    </g>
</svg>
